<?xml version="1.0" encoding="UTF-8" standalone="no"?>
<!DOCTYPE svg PUBLIC "-//W3C//DTD SVG 1.1//EN"
 "http://www.w3.org/Graphics/SVG/1.1/DTD/svg11.dtd">
<!-- Generated by graphviz version 2.26.3 (20100126.1600)
 -->
<!-- Title: _anonymous_0 Pages: 1 -->
<svg width="2595pt" height="776pt"
 viewBox="0.00 0.00 2595.00 776.00" xmlns="http://www.w3.org/2000/svg" xmlns:xlink="http://www.w3.org/1999/xlink">
<g id="graph1" class="graph" transform="scale(1 1) rotate(0) translate(4 772)">
<title>_anonymous_0</title>
<polygon fill="white" stroke="white" points="-4,5 -4,-772 2592,-772 2592,5 -4,5"/>
<g id="graph2" class="cluster"><title>cluster_NOTES</title>
</g>
<g id="graph3" class="cluster"><title>cluster_errors</title>
<polyline fill="none" stroke="#cccccc" stroke-dasharray="5,2" points="118,-190 378,-190 "/>
<path fill="none" stroke="#cccccc" stroke-dasharray="5,2" d="M378,-190C384,-190 390,-196 390,-202"/>
<polyline fill="none" stroke="#cccccc" stroke-dasharray="5,2" points="390,-202 390,-590 "/>
<path fill="none" stroke="#cccccc" stroke-dasharray="5,2" d="M390,-590C390,-596 384,-602 378,-602"/>
<polyline fill="none" stroke="#cccccc" stroke-dasharray="5,2" points="378,-602 118,-602 "/>
<path fill="none" stroke="#cccccc" stroke-dasharray="5,2" d="M118,-602C112,-602 106,-596 106,-590"/>
<polyline fill="none" stroke="#cccccc" stroke-dasharray="5,2" points="106,-590 106,-202 "/>
<path fill="none" stroke="#cccccc" stroke-dasharray="5,2" d="M106,-202C106,-196 112,-190 118,-190"/>
<text text-anchor="middle" x="248" y="-585.4" font-family="Times Roman,serif" font-size="14.00">Error handling</text>
</g>
<g id="graph4" class="cluster"><title>cluster_loader</title>
<polyline fill="none" stroke="#cccccc" stroke-dasharray="5,2" points="448,-100 954,-100 "/>
<path fill="none" stroke="#cccccc" stroke-dasharray="5,2" d="M954,-100C960,-100 966,-106 966,-112"/>
<polyline fill="none" stroke="#cccccc" stroke-dasharray="5,2" points="966,-112 966,-748 "/>
<path fill="none" stroke="#cccccc" stroke-dasharray="5,2" d="M966,-748C966,-754 960,-760 954,-760"/>
<polyline fill="none" stroke="#cccccc" stroke-dasharray="5,2" points="954,-760 448,-760 "/>
<path fill="none" stroke="#cccccc" stroke-dasharray="5,2" d="M448,-760C442,-760 436,-754 436,-748"/>
<polyline fill="none" stroke="#cccccc" stroke-dasharray="5,2" points="436,-748 436,-112 "/>
<path fill="none" stroke="#cccccc" stroke-dasharray="5,2" d="M436,-112C436,-106 442,-100 448,-100"/>
<text text-anchor="middle" x="701" y="-743.4" font-family="Times Roman,serif" font-size="14.00">App loader</text>
</g>
<g id="graph5" class="cluster"><title>cluster_appinfo</title>
<polyline fill="none" stroke="#cccccc" stroke-dasharray="5,2" points="986,-8 1640,-8 "/>
<path fill="none" stroke="#cccccc" stroke-dasharray="5,2" d="M1640,-8C1646,-8 1652,-14 1652,-20"/>
<polyline fill="none" stroke="#cccccc" stroke-dasharray="5,2" points="1652,-20 1652,-748 "/>
<path fill="none" stroke="#cccccc" stroke-dasharray="5,2" d="M1652,-748C1652,-754 1646,-760 1640,-760"/>
<polyline fill="none" stroke="#cccccc" stroke-dasharray="5,2" points="1640,-760 986,-760 "/>
<path fill="none" stroke="#cccccc" stroke-dasharray="5,2" d="M986,-760C980,-760 974,-754 974,-748"/>
<polyline fill="none" stroke="#cccccc" stroke-dasharray="5,2" points="974,-748 974,-20 "/>
<path fill="none" stroke="#cccccc" stroke-dasharray="5,2" d="M974,-20C974,-14 980,-8 986,-8"/>
<text text-anchor="middle" x="1313" y="-743.4" font-family="Times Roman,serif" font-size="14.00">App info</text>
</g>
<g id="graph6" class="cluster"><title>cluster_setparam</title>
<polyline fill="none" stroke="#cccccc" stroke-dasharray="5,2" points="1672,-100 2052,-100 "/>
<path fill="none" stroke="#cccccc" stroke-dasharray="5,2" d="M2052,-100C2058,-100 2064,-106 2064,-112"/>
<polyline fill="none" stroke="#cccccc" stroke-dasharray="5,2" points="2064,-112 2064,-748 "/>
<path fill="none" stroke="#cccccc" stroke-dasharray="5,2" d="M2064,-748C2064,-754 2058,-760 2052,-760"/>
<polyline fill="none" stroke="#cccccc" stroke-dasharray="5,2" points="2052,-760 1672,-760 "/>
<path fill="none" stroke="#cccccc" stroke-dasharray="5,2" d="M1672,-760C1666,-760 1660,-754 1660,-748"/>
<polyline fill="none" stroke="#cccccc" stroke-dasharray="5,2" points="1660,-748 1660,-112 "/>
<path fill="none" stroke="#cccccc" stroke-dasharray="5,2" d="M1660,-112C1660,-106 1666,-100 1672,-100"/>
<text text-anchor="middle" x="1862" y="-743.4" font-family="Times Roman,serif" font-size="14.00">Set parameter</text>
</g>
<g id="graph7" class="cluster"><title>cluster_getparam</title>
<polyline fill="none" stroke="#cccccc" stroke-dasharray="5,2" points="2084,-325 2531,-325 "/>
<path fill="none" stroke="#cccccc" stroke-dasharray="5,2" d="M2531,-325C2537,-325 2543,-331 2543,-337"/>
<polyline fill="none" stroke="#cccccc" stroke-dasharray="5,2" points="2543,-337 2543,-748 "/>
<path fill="none" stroke="#cccccc" stroke-dasharray="5,2" d="M2543,-748C2543,-754 2537,-760 2531,-760"/>
<polyline fill="none" stroke="#cccccc" stroke-dasharray="5,2" points="2531,-760 2084,-760 "/>
<path fill="none" stroke="#cccccc" stroke-dasharray="5,2" d="M2084,-760C2078,-760 2072,-754 2072,-748"/>
<polyline fill="none" stroke="#cccccc" stroke-dasharray="5,2" points="2072,-748 2072,-337 "/>
<path fill="none" stroke="#cccccc" stroke-dasharray="5,2" d="M2072,-337C2072,-331 2078,-325 2084,-325"/>
<text text-anchor="middle" x="2307.5" y="-743.4" font-family="Times Roman,serif" font-size="14.00">Get parameter</text>
</g>
<!-- note1 -->
<g id="node2" class="node"><title>note1</title>
<polygon fill="#ffffcc" stroke="#000000" points="256,-717 16,-717 16,-655 262,-655 262,-711 256,-717"/>
<polyline fill="none" stroke="#000000" points="256,-717 256,-711 "/>
<polyline fill="none" stroke="#000000" points="262,-711 256,-711 "/>
<text text-anchor="middle" x="139" y="-700.4" font-family="Times Roman,serif" font-size="14.00">Message directions:</text>
<text text-anchor="middle" x="139" y="-682.4" font-family="Times Roman,serif" font-size="14.00">&gt;MESSAGE = master &gt;&gt;&gt; slave</text>
<text text-anchor="middle" x="139" y="-664.4" font-family="Times Roman,serif" font-size="14.00">&lt;MESSAGE = master &lt;&lt;&lt; slave</text>
</g>
<!-- any -->
<g id="node6" class="node"><title>any</title>
<polygon fill="#eeeeee" stroke="#ff0000" points="188,-568 146,-542 188,-516 230,-542 188,-568"/>
<polyline fill="none" stroke="#ff0000" points="156.203,-548.316 156.203,-535.684 "/>
<polyline fill="none" stroke="#ff0000" points="177.797,-522.316 198.203,-522.316 "/>
<polyline fill="none" stroke="#ff0000" points="219.797,-535.684 219.797,-548.316 "/>
<polyline fill="none" stroke="#ff0000" points="198.203,-561.684 177.797,-561.684 "/>
<text text-anchor="middle" x="188" y="-538.4" font-family="Times Roman,serif" font-size="14.00">any</text>
</g>
<!-- note1&#45;&gt;any -->
<g id="edge14" class="edge"><title>note1&#45;&gt;any</title>
</g>
<!-- note2 -->
<g id="node3" class="node"><title>note2</title>
<polygon fill="#ffffcc" stroke="#000000" points="414,-717 280,-717 280,-655 420,-655 420,-711 414,-717"/>
<polyline fill="none" stroke="#000000" points="414,-717 414,-711 "/>
<polyline fill="none" stroke="#000000" points="420,-711 414,-711 "/>
<text text-anchor="middle" x="350" y="-700.4" font-family="Times Roman,serif" font-size="14.00">Ownership:</text>
<text text-anchor="middle" x="350" y="-682.4" font-family="Times Roman,serif" font-size="14.00">red, box = master</text>
<text text-anchor="middle" x="350" y="-664.4" font-family="Times Roman,serif" font-size="14.00">blue, oval = slave</text>
</g>
<!-- note2&#45;&gt;any -->
<g id="edge16" class="edge"><title>note2&#45;&gt;any</title>
</g>
<!-- IDLE_errors -->
<g id="node5" class="node"><title>IDLE_errors</title>
<ellipse fill="#eeeeee" stroke="#000000" cx="171" cy="-238" rx="34.9078" ry="35.3553"/>
<ellipse fill="none" stroke="#000000" cx="171" cy="-238" rx="38.8572" ry="39.3553"/>
<text text-anchor="middle" x="171" y="-234.4" font-family="Times Roman,serif" font-size="14.00">IDLE</text>
</g>
<!-- any&#45;&gt;IDLE_errors -->
<g id="edge12" class="edge"><title>any&#45;&gt;IDLE_errors</title>
</g>
<!-- ERROR_SLAVE -->
<g id="node7" class="node"><title>ERROR_SLAVE</title>
<polygon fill="#eeeeee" stroke="#800000" points="252,-461 134,-461 134,-425 252,-425 252,-461"/>
<text text-anchor="middle" x="193" y="-439.4" font-family="Times Roman,serif" font-size="14.00">ERROR_SLAVE</text>
</g>
<!-- any&#45;&gt;ERROR_SLAVE -->
<g id="edge8" class="edge"><title>any&#45;&gt;ERROR_SLAVE</title>
<path fill="none" stroke="#6666cc" d="M187.89,-516.037C187.98,-504.928 188.267,-491.819 189,-480 189.18,-477.098 189.42,-474.073 189.694,-471.058"/>
<polygon fill="#6666cc" stroke="#6666cc" points="193.183,-471.342 190.715,-461.038 186.219,-470.632 193.183,-471.342"/>
<text text-anchor="middle" x="236" y="-485.4" font-family="Times Roman,serif" font-size="14.00" fill="#000080">&lt;unmanaged</text>
</g>
<!-- ERROR_MASTER -->
<g id="node8" class="node"><title>ERROR_MASTER</title>
<ellipse fill="#eeeeee" stroke="#000080" cx="227" cy="-351" rx="92.839" ry="18.3848"/>
<text text-anchor="middle" x="227" y="-347.4" font-family="Times Roman,serif" font-size="14.00">ERROR_MASTER</text>
</g>
<!-- any&#45;&gt;ERROR_MASTER -->
<g id="edge4" class="edge"><title>any&#45;&gt;ERROR_MASTER</title>
<path fill="none" stroke="#cc6666" d="M220.868,-536.17C242.559,-530.433 269.398,-519.291 283,-498 296.71,-476.541 322.315,-483.691 270,-388 267.644,-383.69 264.573,-379.655 261.157,-375.952"/>
<polygon fill="#cc6666" stroke="#cc6666" points="263.403,-373.255 253.775,-368.833 258.544,-378.294 263.403,-373.255"/>
<text text-anchor="middle" x="349" y="-439.4" font-family="Times Roman,serif" font-size="14.00" fill="#800000">&gt;unmanaged</text>
</g>
<!-- ERROR_SLAVE&#45;&gt;ERROR_MASTER -->
<g id="edge6" class="edge"><title>ERROR_SLAVE&#45;&gt;ERROR_MASTER</title>
<path fill="none" stroke="#cc6666" d="M199.717,-424.824C204.529,-411.804 211.101,-394.021 216.589,-379.171"/>
<polygon fill="#cc6666" stroke="#cc6666" points="219.997,-380.047 220.18,-369.453 213.431,-377.62 219.997,-380.047"/>
<text text-anchor="middle" x="240" y="-393.4" font-family="Times Roman,serif" font-size="14.00" fill="#800000">&gt;NACK</text>
</g>
<!-- ERROR_MASTER&#45;&gt;IDLE_errors -->
<g id="edge10" class="edge"><title>ERROR_MASTER&#45;&gt;IDLE_errors</title>
<path fill="none" stroke="#6666cc" d="M217.753,-332.34C211.095,-318.906 201.819,-300.189 193.284,-282.966"/>
<polygon fill="#6666cc" stroke="#6666cc" points="196.216,-281 188.639,-273.594 189.944,-284.108 196.216,-281"/>
<text text-anchor="middle" x="234" y="-301.4" font-family="Times Roman,serif" font-size="14.00" fill="#000080">&lt;NACK</text>
</g>
<!-- IDLE_loader -->
<g id="node17" class="node"><title>IDLE_loader</title>
<ellipse fill="#eeeeee" stroke="#000000" cx="505" cy="-686" rx="34.9078" ry="35.3553"/>
<ellipse fill="none" stroke="#000000" cx="505" cy="-686" rx="38.8572" ry="39.3553"/>
<text text-anchor="middle" x="505" y="-682.4" font-family="Times Roman,serif" font-size="14.00">IDLE</text>
</g>
<!-- LOADER_BEGINNING -->
<g id="node18" class="node"><title>LOADER_BEGINNING</title>
<polygon fill="#eeeeee" stroke="#800000" points="652,-560 488,-560 488,-524 652,-524 652,-560"/>
<text text-anchor="middle" x="570" y="-538.4" font-family="Times Roman,serif" font-size="14.00">LOADER_BEGINNING</text>
</g>
<!-- IDLE_loader&#45;&gt;LOADER_BEGINNING -->
<g id="edge19" class="edge"><title>IDLE_loader&#45;&gt;LOADER_BEGINNING</title>
<path fill="none" stroke="#cc6666" d="M521.235,-650.034C532.553,-624.96 547.417,-592.029 557.747,-569.145"/>
<polygon fill="#cc6666" stroke="#cc6666" points="560.948,-570.56 561.873,-560.006 554.568,-567.68 560.948,-570.56"/>
<text text-anchor="middle" x="600" y="-615.4" font-family="Times Roman,serif" font-size="14.00" fill="#800000">&gt;BEGIN_LOADER</text>
</g>
<!-- LOADER_READY -->
<g id="node23" class="node"><title>LOADER_READY</title>
<ellipse fill="#eeeeee" stroke="#000080" cx="589" cy="-443" rx="92.1303" ry="18.3848"/>
<text text-anchor="middle" x="589" y="-439.4" font-family="Times Roman,serif" font-size="14.00">LOADER_READY</text>
</g>
<!-- LOADER_BEGINNING&#45;&gt;LOADER_READY -->
<g id="edge29" class="edge"><title>LOADER_BEGINNING&#45;&gt;LOADER_READY</title>
<path fill="none" stroke="#6666cc" d="M573.485,-523.842C576.288,-509.234 580.279,-488.44 583.511,-471.6"/>
<polygon fill="#6666cc" stroke="#6666cc" points="586.96,-472.196 585.408,-461.716 580.086,-470.877 586.96,-472.196"/>
<text text-anchor="middle" x="602.5" y="-485.4" font-family="Times Roman,serif" font-size="14.00" fill="#000080">&lt;ACK</text>
</g>
<!-- LOADER_LINKING -->
<g id="node19" class="node"><title>LOADER_LINKING</title>
<polygon fill="#eeeeee" stroke="#800000" points="763,-369 623,-369 623,-333 763,-333 763,-369"/>
<text text-anchor="middle" x="693" y="-347.4" font-family="Times Roman,serif" font-size="14.00">LOADER_LINKING</text>
</g>
<!-- LOADER_RECEIVING_IHEX -->
<g id="node24" class="node"><title>LOADER_RECEIVING_IHEX</title>
<ellipse fill="#eeeeee" stroke="#000080" cx="724" cy="-238" rx="143.043" ry="18.3848"/>
<text text-anchor="middle" x="724" y="-234.4" font-family="Times Roman,serif" font-size="14.00">LOADER_RECEIVING_IHEX</text>
</g>
<!-- LOADER_LINKING&#45;&gt;LOADER_RECEIVING_IHEX -->
<g id="edge31" class="edge"><title>LOADER_LINKING&#45;&gt;LOADER_RECEIVING_IHEX</title>
<path fill="none" stroke="#6666cc" d="M697.981,-332.845C702.871,-315.019 710.406,-287.551 716.112,-266.755"/>
<polygon fill="#6666cc" stroke="#6666cc" points="719.555,-267.434 718.825,-256.864 712.804,-265.582 719.555,-267.434"/>
<text text-anchor="middle" x="783.5" y="-301.4" font-family="Times Roman,serif" font-size="14.00" fill="#000080">&lt;LINKING_OUTCOME</text>
</g>
<!-- LOADER_IHEX_RECORD_RECEIVED -->
<g id="node20" class="node"><title>LOADER_IHEX_RECORD_RECEIVED</title>
<polygon fill="#eeeeee" stroke="#800000" points="958,-144 694,-144 694,-108 958,-108 958,-144"/>
<text text-anchor="middle" x="826" y="-122.4" font-family="Times Roman,serif" font-size="14.00">LOADER_IHEX_RECORD_RECEIVED</text>
</g>
<!-- LOADER_IHEX_RECORD_RECEIVED&#45;&gt;LOADER_RECEIVING_IHEX -->
<g id="edge33" class="edge"><title>LOADER_IHEX_RECORD_RECEIVED&#45;&gt;LOADER_RECEIVING_IHEX</title>
<path fill="none" stroke="#6666cc" d="M755.219,-144.25C747.105,-148.89 739.71,-154.708 734,-162 723.667,-175.196 721.081,-193.801 721.119,-209.3"/>
<polygon fill="#6666cc" stroke="#6666cc" points="717.627,-209.569 721.503,-219.429 724.622,-209.304 717.627,-209.569"/>
<text text-anchor="middle" x="754.5" y="-167.4" font-family="Times Roman,serif" font-size="14.00" fill="#000080">&lt;ACK</text>
</g>
<!-- LOADER_IHEX_EOF_RECEIVED -->
<g id="node21" class="node"><title>LOADER_IHEX_EOF_RECEIVED</title>
<polygon fill="#eeeeee" stroke="#800000" points="676,-144 444,-144 444,-108 676,-108 676,-144"/>
<text text-anchor="middle" x="560" y="-122.4" font-family="Times Roman,serif" font-size="14.00">LOADER_IHEX_EOF_RECEIVED</text>
</g>
<!-- LOADER_IHEX_EOF_RECEIVED&#45;&gt;LOADER_READY -->
<g id="edge35" class="edge"><title>LOADER_IHEX_EOF_RECEIVED&#45;&gt;LOADER_READY</title>
<path fill="none" stroke="#6666cc" d="M557.816,-144.012C556.838,-154.516 556.088,-168.016 557,-180 560.343,-223.936 559.567,-235.728 572,-278 578.455,-299.95 587.346,-302.83 593,-325 599.941,-352.217 596.888,-359.934 598,-388 598.317,-395.994 598.952,-398.057 598,-406 597.672,-408.736 597.212,-411.563 596.672,-414.377"/>
<polygon fill="#6666cc" stroke="#6666cc" points="593.212,-413.815 594.457,-424.336 600.045,-415.334 593.212,-413.815"/>
<text text-anchor="middle" x="610.5" y="-301.4" font-family="Times Roman,serif" font-size="14.00" fill="#000080">&lt;ACK</text>
</g>
<!-- LOADER_ENDING -->
<g id="node22" class="node"><title>LOADER_ENDING</title>
<polygon fill="#eeeeee" stroke="#800000" points="584,-369 444,-369 444,-333 584,-333 584,-369"/>
<text text-anchor="middle" x="514" y="-347.4" font-family="Times Roman,serif" font-size="14.00">LOADER_ENDING</text>
</g>
<!-- LOADER_ENDING&#45;&gt;IDLE_loader -->
<g id="edge37" class="edge"><title>LOADER_ENDING&#45;&gt;IDLE_loader</title>
<path fill="none" stroke="#6666cc" d="M493.886,-369.264C489.103,-374.774 484.629,-381.186 482,-388 480.459,-391.993 474.677,-573.412 479,-602 480.855,-614.264 484.151,-627.205 487.787,-639.157"/>
<polygon fill="#6666cc" stroke="#6666cc" points="484.529,-640.461 490.897,-648.929 491.199,-638.338 484.529,-640.461"/>
<text text-anchor="middle" x="499.5" y="-485.4" font-family="Times Roman,serif" font-size="14.00" fill="#000080">&lt;ACK</text>
</g>
<!-- LOADER_READY&#45;&gt;LOADER_LINKING -->
<g id="edge21" class="edge"><title>LOADER_READY&#45;&gt;LOADER_LINKING</title>
<path fill="none" stroke="#cc6666" d="M609.547,-424.824C625.358,-410.837 647.384,-391.353 664.837,-375.913"/>
<polygon fill="#cc6666" stroke="#cc6666" points="667.325,-378.386 672.496,-369.138 662.687,-373.143 667.325,-378.386"/>
<text text-anchor="middle" x="719" y="-393.4" font-family="Times Roman,serif" font-size="14.00" fill="#800000">&gt;LINKING_PARAMS</text>
</g>
<!-- LOADER_READY&#45;&gt;LOADER_ENDING -->
<g id="edge27" class="edge"><title>LOADER_READY&#45;&gt;LOADER_ENDING</title>
<path fill="none" stroke="#cc6666" d="M532.83,-428.337C513.229,-421.998 494.685,-414.166 489,-406 483.005,-397.389 485.512,-387.11 490.792,-377.782"/>
<polygon fill="#cc6666" stroke="#cc6666" points="493.871,-379.473 496.517,-369.214 488.051,-375.584 493.871,-379.473"/>
<text text-anchor="middle" x="543.5" y="-393.4" font-family="Times Roman,serif" font-size="14.00" fill="#800000">&gt;END_LOADER</text>
</g>
<!-- LOADER_RECEIVING_IHEX&#45;&gt;LOADER_IHEX_RECORD_RECEIVED -->
<g id="edge23" class="edge"><title>LOADER_RECEIVING_IHEX&#45;&gt;LOADER_IHEX_RECORD_RECEIVED</title>
<path fill="none" stroke="#cc6666" d="M740.843,-219.505C757.702,-200.994 783.776,-172.364 802.631,-151.66"/>
<polygon fill="#cc6666" stroke="#cc6666" points="805.325,-153.9 809.47,-144.15 800.149,-149.187 805.325,-153.9"/>
<text text-anchor="middle" x="874" y="-167.4" font-family="Times Roman,serif" font-size="14.00" fill="#800000">&gt;IHEX_RECORD(!EOF)</text>
</g>
<!-- LOADER_RECEIVING_IHEX&#45;&gt;LOADER_IHEX_EOF_RECEIVED -->
<g id="edge25" class="edge"><title>LOADER_RECEIVING_IHEX&#45;&gt;LOADER_IHEX_EOF_RECEIVED</title>
<path fill="none" stroke="#cc6666" d="M636.602,-223.205C610.946,-214.671 585.19,-201.216 568,-180 562.211,-172.855 559.661,-163.369 558.726,-154.342"/>
<polygon fill="#cc6666" stroke="#cc6666" points="562.213,-153.96 558.274,-144.125 555.22,-154.27 562.213,-153.96"/>
<text text-anchor="middle" x="645" y="-167.4" font-family="Times Roman,serif" font-size="14.00" fill="#800000">&gt;IHEX_RECORD(EOF)</text>
</g>
<!-- IDLE_appinfo -->
<g id="node36" class="node"><title>IDLE_appinfo</title>
<ellipse fill="#eeeeee" stroke="#000000" cx="1022" cy="-686" rx="34.9078" ry="35.3553"/>
<ellipse fill="none" stroke="#000000" cx="1022" cy="-686" rx="38.8572" ry="39.3553"/>
<text text-anchor="middle" x="1022" y="-682.4" font-family="Times Roman,serif" font-size="14.00">IDLE</text>
</g>
<!-- APPINFO_BEGINNING -->
<g id="node37" class="node"><title>APPINFO_BEGINNING</title>
<polygon fill="#eeeeee" stroke="#800000" points="1212,-560 1044,-560 1044,-524 1212,-524 1212,-560"/>
<text text-anchor="middle" x="1128" y="-538.4" font-family="Times Roman,serif" font-size="14.00">APPINFO_BEGINNING</text>
</g>
<!-- IDLE_appinfo&#45;&gt;APPINFO_BEGINNING -->
<g id="edge40" class="edge"><title>IDLE_appinfo&#45;&gt;APPINFO_BEGINNING</title>
<path fill="none" stroke="#cc6666" d="M1045.52,-654.042C1064.43,-628.361 1090.67,-592.714 1108.44,-568.578"/>
<polygon fill="#cc6666" stroke="#cc6666" points="1111.46,-570.375 1114.57,-560.247 1105.82,-566.225 1111.46,-570.375"/>
<text text-anchor="middle" x="1138.5" y="-615.4" font-family="Times Roman,serif" font-size="14.00" fill="#800000">&gt;BEGIN_APPINFO</text>
</g>
<!-- APPINFO_SUMMARIZING -->
<g id="node41" class="node"><title>APPINFO_SUMMARIZING</title>
<ellipse fill="#eeeeee" stroke="#000080" cx="1288" cy="-443" rx="133.851" ry="18.3848"/>
<text text-anchor="middle" x="1288" y="-439.4" font-family="Times Roman,serif" font-size="14.00">APPINFO_SUMMARIZING</text>
</g>
<!-- APPINFO_BEGINNING&#45;&gt;APPINFO_SUMMARIZING -->
<g id="edge50" class="edge"><title>APPINFO_BEGINNING&#45;&gt;APPINFO_SUMMARIZING</title>
<path fill="none" stroke="#6666cc" d="M1157.35,-523.842C1183.31,-507.774 1221.38,-484.221 1249.73,-466.678"/>
<polygon fill="#6666cc" stroke="#6666cc" points="1251.91,-469.448 1258.57,-461.21 1248.22,-463.496 1251.91,-469.448"/>
<text text-anchor="middle" x="1305" y="-485.4" font-family="Times Roman,serif" font-size="14.00" fill="#000080">&lt;APPINFO_SUMMARY</text>
</g>
<!-- APPINFO_ITERATING_APPS -->
<g id="node38" class="node"><title>APPINFO_ITERATING_APPS</title>
<polygon fill="#eeeeee" stroke="#800000" points="1492,-369 1286,-369 1286,-333 1492,-333 1492,-369"/>
<text text-anchor="middle" x="1389" y="-347.4" font-family="Times Roman,serif" font-size="14.00">APPINFO_ITERATING_APPS</text>
</g>
<!-- APPINFO_SENDING_LINKING_PARAMS -->
<g id="node42" class="node"><title>APPINFO_SENDING_LINKING_PARAMS</title>
<ellipse fill="#eeeeee" stroke="#000080" cx="1423" cy="-238" rx="200.818" ry="18.3848"/>
<text text-anchor="middle" x="1423" y="-234.4" font-family="Times Roman,serif" font-size="14.00">APPINFO_SENDING_LINKING_PARAMS</text>
</g>
<!-- APPINFO_ITERATING_APPS&#45;&gt;APPINFO_SENDING_LINKING_PARAMS -->
<g id="edge52" class="edge"><title>APPINFO_ITERATING_APPS&#45;&gt;APPINFO_SENDING_LINKING_PARAMS</title>
<path fill="none" stroke="#6666cc" d="M1394.46,-332.845C1399.85,-314.937 1408.17,-287.3 1414.43,-266.47"/>
<polygon fill="#6666cc" stroke="#6666cc" points="1417.79,-267.448 1417.32,-256.864 1411.09,-265.431 1417.79,-267.448"/>
<text text-anchor="middle" x="1473" y="-301.4" font-family="Times Roman,serif" font-size="14.00" fill="#000080">&lt;LINKING_PARAMS</text>
</g>
<!-- APPINFO_ENDING -->
<g id="node44" class="node"><title>APPINFO_ENDING</title>
<ellipse fill="#eeeeee" stroke="#000080" cx="1103" cy="-238" rx="101.116" ry="18.3848"/>
<text text-anchor="middle" x="1103" y="-234.4" font-family="Times Roman,serif" font-size="14.00">APPINFO_ENDING</text>
</g>
<!-- APPINFO_ITERATING_APPS&#45;&gt;APPINFO_ENDING -->
<g id="edge56" class="edge"><title>APPINFO_ITERATING_APPS&#45;&gt;APPINFO_ENDING</title>
<path fill="none" stroke="#6666cc" d="M1335.9,-332.969C1319.21,-327.121 1300.77,-320.469 1284,-314 1238.61,-296.491 1187.56,-274.879 1151.28,-259.183"/>
<polygon fill="#6666cc" stroke="#6666cc" points="1152.49,-255.892 1141.92,-255.124 1149.7,-262.314 1152.49,-255.892"/>
<text text-anchor="middle" x="1340.5" y="-301.4" font-family="Times Roman,serif" font-size="14.00" fill="#000080">&lt;END_APPINFO</text>
</g>
<!-- APPINFO_SENDING_LINKING_PARAMS_WAIT -->
<g id="node39" class="node"><title>APPINFO_SENDING_LINKING_PARAMS_WAIT</title>
<polygon fill="#eeeeee" stroke="#800000" points="1584,-144 1256,-144 1256,-108 1584,-108 1584,-144"/>
<text text-anchor="middle" x="1420" y="-122.4" font-family="Times Roman,serif" font-size="14.00">APPINFO_SENDING_LINKING_PARAMS_WAIT</text>
</g>
<!-- APPINFO_SENDING_LINKING_OUTCOME -->
<g id="node43" class="node"><title>APPINFO_SENDING_LINKING_OUTCOME</title>
<ellipse fill="#eeeeee" stroke="#000080" cx="1430" cy="-35" rx="210.217" ry="18.3848"/>
<text text-anchor="middle" x="1430" y="-31.4" font-family="Times Roman,serif" font-size="14.00">APPINFO_SENDING_LINKING_OUTCOME</text>
</g>
<!-- APPINFO_SENDING_LINKING_PARAMS_WAIT&#45;&gt;APPINFO_SENDING_LINKING_OUTCOME -->
<g id="edge54" class="edge"><title>APPINFO_SENDING_LINKING_PARAMS_WAIT&#45;&gt;APPINFO_SENDING_LINKING_OUTCOME</title>
<path fill="none" stroke="#6666cc" d="M1422.02,-107.585C1423.4,-95.0864 1425.24,-78.3012 1426.81,-64.0202"/>
<polygon fill="#6666cc" stroke="#6666cc" points="1430.33,-64.0227 1427.95,-53.7002 1423.37,-63.258 1430.33,-64.0227"/>
<text text-anchor="middle" x="1501.5" y="-77.4" font-family="Times Roman,serif" font-size="14.00" fill="#000080">&lt;LINKING_OUTCOME</text>
</g>
<!-- APPINFO_ENDING_WAIT_ACK -->
<g id="node40" class="node"><title>APPINFO_ENDING_WAIT_ACK</title>
<polygon fill="#eeeeee" stroke="#800000" points="1209,-144 985,-144 985,-108 1209,-108 1209,-144"/>
<text text-anchor="middle" x="1097" y="-122.4" font-family="Times Roman,serif" font-size="14.00">APPINFO_ENDING_WAIT_ACK</text>
</g>
<!-- APPINFO_ENDING_WAIT_ACK&#45;&gt;IDLE_appinfo -->
<g id="edge58" class="edge"><title>APPINFO_ENDING_WAIT_ACK&#45;&gt;IDLE_appinfo</title>
<path fill="none" stroke="#6666cc" d="M1046.84,-144.023C1026.32,-154.167 1004.69,-169.087 993,-190 950.811,-265.499 992.512,-527.062 1012.56,-636.866"/>
<polygon fill="#6666cc" stroke="#6666cc" points="1009.18,-637.807 1014.43,-647.007 1016.06,-636.538 1009.18,-637.807"/>
<text text-anchor="middle" x="1000.5" y="-393.4" font-family="Times Roman,serif" font-size="14.00" fill="#000080">&lt;ACK</text>
</g>
<!-- APPINFO_SUMMARIZING&#45;&gt;APPINFO_ITERATING_APPS -->
<g id="edge42" class="edge"><title>APPINFO_SUMMARIZING&#45;&gt;APPINFO_ITERATING_APPS</title>
<path fill="none" stroke="#cc6666" d="M1308.44,-424.382C1323.6,-410.575 1344.44,-391.593 1361.12,-376.394"/>
<polygon fill="#cc6666" stroke="#cc6666" points="1363.9,-378.597 1368.94,-369.276 1359.19,-373.422 1363.9,-378.597"/>
<text text-anchor="middle" x="1368.5" y="-393.4" font-family="Times Roman,serif" font-size="14.00" fill="#800000">&gt;ACK</text>
</g>
<!-- APPINFO_SENDING_LINKING_PARAMS&#45;&gt;APPINFO_SENDING_LINKING_PARAMS_WAIT -->
<g id="edge44" class="edge"><title>APPINFO_SENDING_LINKING_PARAMS&#45;&gt;APPINFO_SENDING_LINKING_PARAMS_WAIT</title>
<path fill="none" stroke="#cc6666" d="M1422.5,-219.254C1422.02,-201.518 1421.3,-174.657 1420.76,-154.312"/>
<polygon fill="#cc6666" stroke="#cc6666" points="1424.25,-153.967 1420.48,-144.065 1417.25,-154.155 1424.25,-153.967"/>
<text text-anchor="middle" x="1442.5" y="-167.4" font-family="Times Roman,serif" font-size="14.00" fill="#800000">&gt;ACK</text>
</g>
<!-- APPINFO_SENDING_LINKING_OUTCOME&#45;&gt;APPINFO_ITERATING_APPS -->
<g id="edge46" class="edge"><title>APPINFO_SENDING_LINKING_OUTCOME&#45;&gt;APPINFO_ITERATING_APPS</title>
<path fill="none" stroke="#cc6666" d="M1526.05,-51.4958C1550.08,-57.1654 1571.68,-64.103 1581,-72 1619.39,-104.538 1583.91,-140.433 1615,-180 1620.65,-187.196 1628.36,-182.112 1633,-190 1652.83,-223.709 1654.8,-245.528 1633,-278 1617.51,-301.073 1558.4,-319.088 1502.25,-331.449"/>
<polygon fill="#cc6666" stroke="#cc6666" points="1501.21,-328.091 1492.17,-333.614 1502.68,-334.935 1501.21,-328.091"/>
<text text-anchor="middle" x="1635.5" y="-167.4" font-family="Times Roman,serif" font-size="14.00" fill="#800000">&gt;ACK</text>
</g>
<!-- APPINFO_ENDING&#45;&gt;APPINFO_ENDING_WAIT_ACK -->
<g id="edge48" class="edge"><title>APPINFO_ENDING&#45;&gt;APPINFO_ENDING_WAIT_ACK</title>
<path fill="none" stroke="#cc6666" d="M1102,-219.254C1101.05,-201.518 1099.61,-174.657 1098.52,-154.312"/>
<polygon fill="#cc6666" stroke="#cc6666" points="1102,-153.863 1097.97,-144.065 1095.01,-154.238 1102,-153.863"/>
<text text-anchor="middle" x="1120.5" y="-167.4" font-family="Times Roman,serif" font-size="14.00" fill="#800000">&gt;ACK</text>
</g>
<!-- IDLE_setparam -->
<g id="node56" class="node"><title>IDLE_setparam</title>
<ellipse fill="#eeeeee" stroke="#000000" cx="1961" cy="-686" rx="34.9078" ry="35.3553"/>
<ellipse fill="none" stroke="#000000" cx="1961" cy="-686" rx="38.8572" ry="39.3553"/>
<text text-anchor="middle" x="1961" y="-682.4" font-family="Times Roman,serif" font-size="14.00">IDLE</text>
</g>
<!-- SETPARAM_BEGINNING -->
<g id="node57" class="node"><title>SETPARAM_BEGINNING</title>
<polygon fill="#eeeeee" stroke="#800000" points="1898,-560 1716,-560 1716,-524 1898,-524 1898,-560"/>
<text text-anchor="middle" x="1807" y="-538.4" font-family="Times Roman,serif" font-size="14.00">SETPARAM_BEGINNING</text>
</g>
<!-- IDLE_setparam&#45;&gt;SETPARAM_BEGINNING -->
<g id="edge61" class="edge"><title>IDLE_setparam&#45;&gt;SETPARAM_BEGINNING</title>
<path fill="none" stroke="#cc6666" d="M1924.17,-672.327C1901.8,-662.606 1873.83,-647.763 1854,-628 1837.35,-611.405 1824.98,-587.672 1817.12,-569.34"/>
<polygon fill="#cc6666" stroke="#cc6666" points="1820.35,-567.983 1813.32,-560.052 1813.87,-570.633 1820.35,-567.983"/>
<text text-anchor="middle" x="1924.5" y="-615.4" font-family="Times Roman,serif" font-size="14.00" fill="#800000">&gt;BEGIN_SETPARAM</text>
</g>
<!-- SETPARAM_READY -->
<g id="node61" class="node"><title>SETPARAM_READY</title>
<ellipse fill="#eeeeee" stroke="#000080" cx="1777" cy="-443" rx="104.151" ry="18.3848"/>
<text text-anchor="middle" x="1777" y="-439.4" font-family="Times Roman,serif" font-size="14.00">SETPARAM_READY</text>
</g>
<!-- SETPARAM_BEGINNING&#45;&gt;SETPARAM_READY -->
<g id="edge69" class="edge"><title>SETPARAM_BEGINNING&#45;&gt;SETPARAM_READY</title>
<path fill="none" stroke="#6666cc" d="M1801.5,-523.842C1797.07,-509.234 1790.77,-488.44 1785.67,-471.6"/>
<polygon fill="#6666cc" stroke="#6666cc" points="1788.92,-470.271 1782.67,-461.716 1782.22,-472.301 1788.92,-470.271"/>
<text text-anchor="middle" x="1813.5" y="-485.4" font-family="Times Roman,serif" font-size="14.00" fill="#000080">&lt;ACK</text>
</g>
<!-- SETPARAM_ADDRESSING -->
<g id="node58" class="node"><title>SETPARAM_ADDRESSING</title>
<polygon fill="#eeeeee" stroke="#800000" points="1882,-369 1688,-369 1688,-333 1882,-333 1882,-369"/>
<text text-anchor="middle" x="1785" y="-347.4" font-family="Times Roman,serif" font-size="14.00">SETPARAM_ADDRESSING</text>
</g>
<!-- SETPARAM_RECEIVING_CHUNK -->
<g id="node62" class="node"><title>SETPARAM_RECEIVING_CHUNK</title>
<ellipse fill="#eeeeee" stroke="#000080" cx="1872" cy="-238" rx="166.877" ry="18.3848"/>
<text text-anchor="middle" x="1872" y="-234.4" font-family="Times Roman,serif" font-size="14.00">SETPARAM_RECEIVING_CHUNK</text>
</g>
<!-- SETPARAM_ADDRESSING&#45;&gt;SETPARAM_RECEIVING_CHUNK -->
<g id="edge71" class="edge"><title>SETPARAM_ADDRESSING&#45;&gt;SETPARAM_RECEIVING_CHUNK</title>
<path fill="none" stroke="#6666cc" d="M1798.98,-332.845C1813.16,-314.421 1835.28,-285.697 1851.46,-264.685"/>
<polygon fill="#6666cc" stroke="#6666cc" points="1854.44,-266.545 1857.77,-256.486 1848.89,-262.274 1854.44,-266.545"/>
<text text-anchor="middle" x="1846.5" y="-301.4" font-family="Times Roman,serif" font-size="14.00" fill="#000080">&lt;ACK</text>
</g>
<!-- SETPARAM_WRITING -->
<g id="node59" class="node"><title>SETPARAM_WRITING</title>
<polygon fill="#eeeeee" stroke="#800000" points="1862,-144 1698,-144 1698,-108 1862,-108 1862,-144"/>
<text text-anchor="middle" x="1780" y="-122.4" font-family="Times Roman,serif" font-size="14.00">SETPARAM_WRITING</text>
</g>
<!-- SETPARAM_WRITING&#45;&gt;SETPARAM_READY -->
<g id="edge73" class="edge"><title>SETPARAM_WRITING&#45;&gt;SETPARAM_READY</title>
<path fill="none" stroke="#6666cc" d="M1744.65,-144.05C1727.08,-154.92 1707.25,-170.458 1696,-190 1665.82,-242.405 1682.79,-264.645 1679,-325 1677.75,-344.961 1673.39,-350.803 1679,-370 1684.32,-388.225 1687.86,-393.334 1702,-406 1708.52,-411.841 1716.13,-416.983 1723.96,-421.432"/>
<polygon fill="#6666cc" stroke="#6666cc" points="1722.37,-424.549 1732.84,-426.16 1725.66,-418.37 1722.37,-424.549"/>
<text text-anchor="middle" x="1700.5" y="-301.4" font-family="Times Roman,serif" font-size="14.00" fill="#000080">&lt;ACK</text>
</g>
<!-- SETPARAM_ENDING -->
<g id="node60" class="node"><title>SETPARAM_ENDING</title>
<polygon fill="#eeeeee" stroke="#800000" points="2056,-369 1900,-369 1900,-333 2056,-333 2056,-369"/>
<text text-anchor="middle" x="1978" y="-347.4" font-family="Times Roman,serif" font-size="14.00">SETPARAM_ENDING</text>
</g>
<!-- SETPARAM_ENDING&#45;&gt;IDLE_setparam -->
<g id="edge75" class="edge"><title>SETPARAM_ENDING&#45;&gt;IDLE_setparam</title>
<path fill="none" stroke="#6666cc" d="M1988.28,-369.277C1991.02,-375.081 1993.61,-381.647 1995,-388 2017.79,-492.203 2022.95,-525.06 1995,-628 1993.45,-633.701 1991.19,-639.414 1988.55,-644.913"/>
<polygon fill="#6666cc" stroke="#6666cc" points="1985.37,-643.442 1983.82,-653.923 1991.57,-646.696 1985.37,-643.442"/>
<text text-anchor="middle" x="2034.5" y="-485.4" font-family="Times Roman,serif" font-size="14.00" fill="#000080">&lt;ACK</text>
</g>
<!-- SETPARAM_READY&#45;&gt;SETPARAM_ADDRESSING -->
<g id="edge63" class="edge"><title>SETPARAM_READY&#45;&gt;SETPARAM_ADDRESSING</title>
<path fill="none" stroke="#cc6666" d="M1732.09,-426.242C1713.92,-416.716 1699.26,-403.577 1709,-388 1712.14,-382.978 1716.18,-378.62 1720.76,-374.842"/>
<polygon fill="#cc6666" stroke="#cc6666" points="1722.8,-377.68 1728.9,-369.015 1718.73,-371.986 1722.8,-377.68"/>
<text text-anchor="middle" x="1777" y="-393.4" font-family="Times Roman,serif" font-size="14.00" fill="#800000">&gt;PARAM_REQUEST</text>
</g>
<!-- SETPARAM_READY&#45;&gt;SETPARAM_ENDING -->
<g id="edge67" class="edge"><title>SETPARAM_READY&#45;&gt;SETPARAM_ENDING</title>
<path fill="none" stroke="#cc6666" d="M1811.89,-425.447C1822.72,-419.622 1834.55,-412.862 1845,-406 1855.85,-398.874 1856.57,-394.158 1868,-388 1878.85,-382.155 1890.79,-376.991 1902.68,-372.517"/>
<polygon fill="#cc6666" stroke="#cc6666" points="1903.98,-375.77 1912.19,-369.076 1901.6,-369.188 1903.98,-375.77"/>
<text text-anchor="middle" x="1931.5" y="-393.4" font-family="Times Roman,serif" font-size="14.00" fill="#800000">&gt;END_SETPARAM</text>
</g>
<!-- SETPARAM_RECEIVING_CHUNK&#45;&gt;SETPARAM_WRITING -->
<g id="edge65" class="edge"><title>SETPARAM_RECEIVING_CHUNK&#45;&gt;SETPARAM_WRITING</title>
<path fill="none" stroke="#cc6666" d="M1856.81,-219.505C1841.67,-201.076 1818.29,-172.616 1801.3,-151.934"/>
<polygon fill="#cc6666" stroke="#cc6666" points="1803.96,-149.656 1794.91,-144.15 1798.55,-154.099 1803.96,-149.656"/>
<text text-anchor="middle" x="1883.5" y="-167.4" font-family="Times Roman,serif" font-size="14.00" fill="#800000">&gt;PARAM_CHUNK</text>
</g>
<!-- IDLE_getparam -->
<g id="node72" class="node"><title>IDLE_getparam</title>
<ellipse fill="#eeeeee" stroke="#000000" cx="2457" cy="-686" rx="34.9078" ry="35.3553"/>
<ellipse fill="none" stroke="#000000" cx="2457" cy="-686" rx="38.8572" ry="39.3553"/>
<text text-anchor="middle" x="2457" y="-682.4" font-family="Times Roman,serif" font-size="14.00">IDLE</text>
</g>
<!-- GETPARAM_BEGINNING -->
<g id="node73" class="node"><title>GETPARAM_BEGINNING</title>
<polygon fill="#eeeeee" stroke="#800000" points="2387,-560 2203,-560 2203,-524 2387,-524 2387,-560"/>
<text text-anchor="middle" x="2295" y="-538.4" font-family="Times Roman,serif" font-size="14.00">GETPARAM_BEGINNING</text>
</g>
<!-- IDLE_getparam&#45;&gt;GETPARAM_BEGINNING -->
<g id="edge78" class="edge"><title>IDLE_getparam&#45;&gt;GETPARAM_BEGINNING</title>
<path fill="none" stroke="#cc6666" d="M2420.07,-672.8C2396.79,-663.104 2367.23,-648.116 2346,-628 2328.59,-611.503 2315.12,-587.762 2306.4,-569.402"/>
<polygon fill="#cc6666" stroke="#cc6666" points="2309.5,-567.75 2302.17,-560.097 2303.13,-570.649 2309.5,-567.75"/>
<text text-anchor="middle" x="2417.5" y="-615.4" font-family="Times Roman,serif" font-size="14.00" fill="#800000">&gt;BEGIN_GETPARAM</text>
</g>
<!-- GETPARAM_READY -->
<g id="node76" class="node"><title>GETPARAM_READY</title>
<ellipse fill="#eeeeee" stroke="#000080" cx="2262" cy="-443" rx="106.066" ry="18.3848"/>
<text text-anchor="middle" x="2262" y="-439.4" font-family="Times Roman,serif" font-size="14.00">GETPARAM_READY</text>
</g>
<!-- GETPARAM_BEGINNING&#45;&gt;GETPARAM_READY -->
<g id="edge84" class="edge"><title>GETPARAM_BEGINNING&#45;&gt;GETPARAM_READY</title>
<path fill="none" stroke="#6666cc" d="M2288.95,-523.842C2284.08,-509.234 2277.15,-488.44 2271.53,-471.6"/>
<polygon fill="#6666cc" stroke="#6666cc" points="2274.72,-470.096 2268.24,-461.716 2268.08,-472.309 2274.72,-470.096"/>
<text text-anchor="middle" x="2300.5" y="-485.4" font-family="Times Roman,serif" font-size="14.00" fill="#000080">&lt;ACK</text>
</g>
<!-- GETPARAM_READING -->
<g id="node74" class="node"><title>GETPARAM_READING</title>
<polygon fill="#eeeeee" stroke="#800000" points="2303,-369 2135,-369 2135,-333 2303,-333 2303,-369"/>
<text text-anchor="middle" x="2219" y="-347.4" font-family="Times Roman,serif" font-size="14.00">GETPARAM_READING</text>
</g>
<!-- GETPARAM_READING&#45;&gt;GETPARAM_READY -->
<g id="edge86" class="edge"><title>GETPARAM_READING&#45;&gt;GETPARAM_READY</title>
<path fill="none" stroke="#6666cc" d="M2227.54,-369.276C2233.66,-382.373 2242.02,-400.253 2248.97,-415.125"/>
<polygon fill="#6666cc" stroke="#6666cc" points="2245.89,-416.805 2253.3,-424.382 2252.23,-413.841 2245.89,-416.805"/>
<text text-anchor="middle" x="2304.5" y="-393.4" font-family="Times Roman,serif" font-size="14.00" fill="#000080">&lt;PARAM_CHUNK</text>
</g>
<!-- GETPARAM_ENDING -->
<g id="node75" class="node"><title>GETPARAM_ENDING</title>
<polygon fill="#eeeeee" stroke="#800000" points="2506,-369 2348,-369 2348,-333 2506,-333 2506,-369"/>
<text text-anchor="middle" x="2427" y="-347.4" font-family="Times Roman,serif" font-size="14.00">GETPARAM_ENDING</text>
</g>
<!-- GETPARAM_ENDING&#45;&gt;IDLE_getparam -->
<g id="edge88" class="edge"><title>GETPARAM_ENDING&#45;&gt;IDLE_getparam</title>
<path fill="none" stroke="#6666cc" d="M2490.66,-369.071C2506.04,-374.765 2519.4,-381.321 2524,-388 2578.48,-467.083 2522.35,-583.402 2484.84,-644.702"/>
<polygon fill="#6666cc" stroke="#6666cc" points="2481.78,-642.999 2479.46,-653.336 2487.72,-646.702 2481.78,-642.999"/>
<text text-anchor="middle" x="2566.5" y="-485.4" font-family="Times Roman,serif" font-size="14.00" fill="#000080">&lt;ACK</text>
</g>
<!-- GETPARAM_READY&#45;&gt;GETPARAM_READING -->
<g id="edge80" class="edge"><title>GETPARAM_READY&#45;&gt;GETPARAM_READING</title>
<path fill="none" stroke="#cc6666" d="M2173.14,-432.793C2140.45,-427.058 2108.96,-418.472 2099,-406 2084.42,-387.738 2100.49,-375.298 2125.12,-366.939"/>
<polygon fill="#cc6666" stroke="#cc6666" points="2126.39,-370.209 2134.93,-363.932 2124.34,-363.517 2126.39,-370.209"/>
<text text-anchor="middle" x="2167" y="-393.4" font-family="Times Roman,serif" font-size="14.00" fill="#800000">&lt;PARAM_REQUEST</text>
</g>
<!-- GETPARAM_READY&#45;&gt;GETPARAM_ENDING -->
<g id="edge82" class="edge"><title>GETPARAM_READY&#45;&gt;GETPARAM_ENDING</title>
<path fill="none" stroke="#cc6666" d="M2320.34,-427.468C2336.4,-421.925 2353.4,-414.814 2368,-406 2381.22,-398.022 2393.99,-386.716 2404.25,-376.427"/>
<polygon fill="#cc6666" stroke="#cc6666" points="2406.83,-378.803 2411.25,-369.178 2401.79,-373.941 2406.83,-378.803"/>
<text text-anchor="middle" x="2455.5" y="-393.4" font-family="Times Roman,serif" font-size="14.00" fill="#800000">&gt;END_GETPARAM</text>
</g>
</g>
</svg>
